
        <svg width="24" height="24" viewBox="0 0 24 24" fill="currentColor" xmlns="http://www.w3.org/2000/svg">
            <g clip-path="url(#clip0_1_9426)">
            <path d="M16.1536 11.7578H15V12.2419H16.1536C16.2806 12.2419 16.3842 12.1332 16.3842 12.0001C16.3842 11.8669 16.2806 11.7583 16.1536 11.7583V11.7578Z" fill="#4C4C4C"></path>
            <path d="M23.9656 9.11419C23.8962 8.89109 23.7289 8.71664 23.5151 8.64637L16.707 6.39718L12.5628 0.304183C12.4329 0.113024 12.2229 0 11.9993 0C11.7757 0 11.5657 0.113516 11.4359 0.304183L7.29167 6.39718L0.483542 8.64637C0.270261 8.71664 0.102449 8.89109 0.0330736 9.11419C-0.0363014 9.33729 0.00166737 9.58152 0.134792 9.77022L4.38167 15.7851L4.31839 23.2678C4.31651 23.5022 4.42245 23.7233 4.60386 23.8614C4.78479 23.9995 5.01823 24.0369 5.23057 23.9627L11.9993 21.5872L18.7681 23.9627C18.8398 23.9877 18.9139 24 18.9879 24C19.1323 24 19.2753 23.9528 19.3948 23.8614C19.5757 23.7233 19.6821 23.5022 19.6803 23.2678L19.617 15.7851L23.8639 9.77071C23.997 9.58201 24.035 9.33729 23.9656 9.11419ZM10.3399 11.2872L8.95526 15.158C8.85401 15.4411 8.59573 15.6288 8.30698 15.6288C8.01823 15.6288 7.75995 15.4411 7.6587 15.158L6.27401 11.2872C6.13995 10.9118 6.32136 10.4936 6.67901 10.353C7.03714 10.2125 7.43604 10.4027 7.57011 10.7776L8.30651 12.8361L9.04292 10.7776C9.17698 10.4022 9.57636 10.212 9.93401 10.353C10.2921 10.4936 10.4745 10.9123 10.3399 11.2872ZM12.6917 14.903C12.6917 15.304 12.3818 15.6288 11.9993 15.6288C11.6168 15.6288 11.307 15.304 11.307 14.903V11.0322C11.307 10.6312 11.6168 10.3064 11.9993 10.3064C12.3818 10.3064 12.6917 10.6312 12.6917 11.0322V14.903ZM16.1534 13.6936H14.9998V14.903C14.9998 15.304 14.6899 15.6288 14.3074 15.6288C13.9249 15.6288 13.6151 15.304 13.6151 14.903V11.0322C13.6151 10.6312 13.9249 10.3064 14.3074 10.3064H16.1539C17.0445 10.3064 17.7692 11.0661 17.7692 11.9998C17.7692 12.9334 17.044 13.6936 16.1534 13.6936Z" fill="#4D4D4D"></path>
            </g>
            <defs>
            <clipPath id="clip0_1_9426">
            <rect width="24" height="24" fill="white"></rect>
            </clipPath>
            </defs>
        </svg>

    