
        <svg width="24" height="24" viewBox="0 0 24 24" fill="currentColor" xmlns="http://www.w3.org/2000/svg">
            <g clip-path="url(#clip0_1_9421)">
            <path d="M23.4979 21.0739L18.6602 16.2361C19.8585 14.5544 20.5716 12.5041 20.5716 10.2858C20.5716 4.61404 15.9576 0 10.2858 0C4.61404 0 0 4.61404 0 10.2858C0 15.9576 4.61404 20.5716 10.2858 20.5716C12.5041 20.5716 14.5544 19.8593 16.2361 18.6602L21.0739 23.4979C21.7425 24.1674 22.8293 24.1674 23.4979 23.4979C24.1674 22.8285 24.1674 21.7433 23.4979 21.0739ZM1.7143 10.2858C1.7143 5.55948 5.55948 1.7143 10.2858 1.7143C15.0121 1.7143 18.8573 5.55948 18.8573 10.2858C18.8573 15.0121 15.0121 18.8573 10.2858 18.8573C5.55948 18.8573 1.7143 15.0121 1.7143 10.2858Z" fill="#4C4C4C"></path>
            <path d="M9.75 15.75L4.26943 13.4972C3.954 13.3673 3.75 13.0696 3.75 12.7416V7.5L9.75 9.99292V15.75Z" fill="#4C4C4C"></path>
            <path d="M4.5 5.95394L10.1454 3.81166C10.362 3.72945 10.6062 3.72945 10.8228 3.81166L16.5 5.96612L10.4858 8.25L4.5 5.95394Z" fill="#4C4C4C"></path>
            <path d="M17.25 7.5V12.7322C17.25 13.0621 17.046 13.3607 16.7306 13.4902L11.25 15.75V9.97673L17.25 7.5Z" fill="#4C4C4C"></path>
            </g>
            <defs>
            <clipPath id="clip0_1_9421">
            <rect width="24" height="24" fill="white"></rect>
            </clipPath>
            </defs>
        </svg>
    